<svg xmlns="http://www.w3.org/2000/svg" viewBox="0 0 35.63 21.43"><defs><style>.cls-1{fill:#164742;}</style></defs><title>bank-note</title><g id="Layer_2" data-name="Layer 2"><g id="Layer_1-2" data-name="Layer 1"><path class="cls-1" d="M17.46,10l0,2.26a1.24,1.24,0,0,0,.27,0,1.12,1.12,0,0,0,.27,0l.29,0,0-2.33Z"/><path class="cls-1" d="M19.33,10.09l-.32,0h-.16l0,2.32a3.83,3.83,0,0,0,.43-.07,1.43,1.43,0,0,0,.44-.19,1.1,1.1,0,0,0,.34-.34,1.07,1.07,0,0,0,.14-.53,1.28,1.28,0,0,0-.13-.63,1.25,1.25,0,0,0-.32-.36A1.29,1.29,0,0,0,19.33,10.09Z"/><path class="cls-1" d="M18.34,7.26l-.94,0a1.49,1.49,0,0,0,0,.18s0,.11,0,.18a1.69,1.69,0,0,1,0,.23v.38c0,.12,0,.27,0,.43s0,.35,0,.54h.84Z"/><path class="cls-1" d="M19.3,7.34a1.17,1.17,0,0,0-.37-.08h0l0,1.94H19a.91.91,0,0,0,.61-.28.93.93,0,0,0,.27-.67,1.05,1.05,0,0,0-.07-.4,1.1,1.1,0,0,0-.2-.31A1,1,0,0,0,19.3,7.34Z"/><path class="cls-1" d="M21.79,3.8C11.23-4.64.22,3.61.22,3.61L0,18.64s12.9-5.38,17.7.22,17.71.31,17.71.31l.22-15.85C28,9.33,21.79,3.8,21.79,3.8Zm-.94,4.46a1.73,1.73,0,0,1-.17.72,1.75,1.75,0,0,1-.43.57,2.32,2.32,0,0,1,.66.63,1.91,1.91,0,0,1,.27,1.07,1.81,1.81,0,0,1-.24.92,1.93,1.93,0,0,1-.57.6,2.32,2.32,0,0,1-.76.32,4.92,4.92,0,0,1-.8.13v.45h-.56v-.43l-.69,0L17,13.13l-.56-.08h0l.08-5.54,0-.21s0-.11,0-.17A.29.29,0,0,0,16.33,7l.34-.61,1.68,0V5.84h.55v.57h0a1.86,1.86,0,0,1,.75.15A2,2,0,0,1,20.3,7a2,2,0,0,1,.41.58A2,2,0,0,1,20.85,8.26Z"/></g></g></svg>