<svg xmlns="http://www.w3.org/2000/svg" viewBox="0 0 263.01 171.63"><defs><style>.cls-1{fill:#164742;}.cls-2{fill:#f4d450;}</style></defs><title>leave-top</title><g id="Layer_2" data-name="Layer 2"><g id="Layer_1-2" data-name="Layer 1"><path class="cls-1" d="M124.32,29.08a63.55,63.55,0,0,0-4.51,11.74l13.24,1.6-15.18,9.12a65,65,0,0,0,0,11.59l17.4,2.11-15.5,9.31a93.65,93.65,0,0,0,5.7,16.22l12.66,1.53L129,97.8a145.55,145.55,0,0,0,22.81,30.81L155.1.24,154.77,0C142.74,6.59,148.24,17.84,124.32,29.08Z"/><path class="cls-1" d="M152.25,129a145.4,145.4,0,0,0,26.34-27.85l-8.42-6.56h12.75a92.9,92.9,0,0,0,7.61-15.42L176.26,68h17.52a66,66,0,0,0,1.38-11.5l-14-10.88h13.34a63.89,63.89,0,0,0-3.08-12.19C169.05,19.41,175.86,8.89,164.7.91l-.36.19Z"/><path class="cls-2" d="M210.46,42.16a63.5,63.5,0,0,0-10.42,7L210,58.09l-17.67-1.21a65,65,0,0,0-6.64,9.5l13.05,11.68-18-1.23a92.2,92.2,0,0,0-4.61,16.56l9.5,8.5-10.65-.72A145.6,145.6,0,0,0,176,139.48L252.21,36.13l-.14-.39C238.44,34.26,236.5,46.63,210.46,42.16Z"/><path class="cls-2" d="M176.2,140a145.52,145.52,0,0,0,37.54-7.76l-3.15-10.2,10.45,7.3a93.49,93.49,0,0,0,15.06-8.29l-5.34-17.28,14.38,10a66,66,0,0,0,7.71-8.65l-5.24-16.92,10.94,7.63A63.66,63.66,0,0,0,263,84.14c-10.34-24.31,1.26-29-3.31-42l-.41,0Z"/><path class="cls-2" d="M42,105.36a63.36,63.36,0,0,0,9.48,8.28l6.05-11.89,3.35,17.39a65.08,65.08,0,0,0,10.88,4l8-15.61,3.43,17.75a92.52,92.52,0,0,0,17.19.21l5.79-11.36,2,10.49a145.76,145.76,0,0,0,36.77-10.85L25.47,66.55l-.34.24C27.19,80.35,39.65,79.05,42,105.36Z"/><path class="cls-2" d="M145.38,113.42a145.21,145.21,0,0,0-17.11-34.3l-9.05,5.66,4.37-12a92,92,0,0,0-11.87-12.44L96.39,70l6-16.46a65.41,65.41,0,0,0-10.33-5.24l-15,9.39,4.57-12.52a63.92,63.92,0,0,0-12.51-1.3C48.26,60,40.72,50,29.4,57.77l.06.4Z"/><path class="cls-1" d="M34.63,169.09A63.57,63.57,0,0,0,47,171.54l-.68-13.32,11.58,13.41a66,66,0,0,0,11.42-2l-.89-17.5,11.82,13.68a92.85,92.85,0,0,0,15-8.38l-.64-12.73,7,8.08A145.28,145.28,0,0,0,128,125.09L1,143.67.8,144C9.33,154.77,19.49,147.44,34.63,169.09Z"/><path class="cls-1" d="M128.29,124.56a145.62,145.62,0,0,0-31.93-21.21l-5,9.42L89.16,100.2a93.64,93.64,0,0,0-16.49-4.87l-8.51,16L61.17,94a64.56,64.56,0,0,0-11.57.6l-8.34,15.62L39,97.1a63.68,63.68,0,0,0-11.49,5.11C17.49,126.66,6,121.75,0,134.1l.25.32Z"/></g></g></svg>