<svg xmlns="http://www.w3.org/2000/svg" viewBox="0 0 145.41 140.04"><defs><style>.cls-1{fill:#164742;}.cls-2{fill:#f4d450;}</style></defs><title>leave-top-right</title><g id="Layer_2" data-name="Layer 2"><g id="Layer_1-2" data-name="Layer 1"><path class="cls-1" d="M6.72,29.08A63.55,63.55,0,0,0,2.21,40.82l13.23,1.6L.26,51.54a66,66,0,0,0,0,11.59l17.39,2.11L2.15,74.55a92.83,92.83,0,0,0,5.7,16.22L20.51,92.3l-9.15,5.5a145.55,145.55,0,0,0,22.81,30.81L37.5.24,37.17,0C25.14,6.59,30.63,17.84,6.72,29.08Z"/><path class="cls-1" d="M34.65,129A145.4,145.4,0,0,0,61,101.1l-8.42-6.56H65.32a92.1,92.1,0,0,0,7.6-15.42L58.66,68H76.18a65,65,0,0,0,1.37-11.5l-14-10.88H76.91a63.09,63.09,0,0,0-3.07-12.19C51.44,19.41,58.25,8.89,47.1.91l-.36.19Z"/><path class="cls-2" d="M92.86,42.16a63.5,63.5,0,0,0-10.42,7l9.94,8.89L74.71,56.88a65.81,65.81,0,0,0-6.65,9.5L81.12,78.06l-18-1.23a93,93,0,0,0-4.6,16.56l9.5,8.5-10.65-.72a145.15,145.15,0,0,0,1.07,38.31L134.61,36.13l-.14-.39C120.83,34.26,118.9,46.63,92.86,42.16Z"/><path class="cls-2" d="M58.6,140a145.52,145.52,0,0,0,37.54-7.76L93,122.08l10.46,7.3a93.92,93.92,0,0,0,15.06-8.29l-5.34-17.28,14.37,10a64.58,64.58,0,0,0,7.71-8.65L130,88.27,141,95.9a64.38,64.38,0,0,0,4.46-11.76c-10.34-24.31,1.26-29-3.32-42l-.4,0Z"/></g></g></svg>