<svg xmlns="http://www.w3.org/2000/svg" viewBox="0 0 70.78 59.72"><defs><style>.cls-1{fill:#47b54a;}.cls-2{fill:#164742;}.cls-3{fill:#e7f5fd;}</style></defs><title>shipping</title><g id="Layer_2" data-name="Layer 2"><g id="Layer_1-2" data-name="Layer 1"><rect class="cls-1" x="37.71" y="19.53" width="28.94" height="20.44" rx="3.77" ry="3.77" transform="translate(-7.88 28.92) rotate(-28.9)"/><rect class="cls-2" x="39.15" y="39.89" width="33.4" height="5.16" rx="2.58" ry="2.58" transform="translate(-13.57 32.28) rotate(-28.9)"/><rect class="cls-2" x="1.59" y="23.52" width="58.18" height="5.16" rx="2.58" ry="2.58" transform="translate(22.66 65.58) rotate(-118.9)"/><path class="cls-2" d="M-.11,4.56h19.5a1.7,1.7,0,0,1,1.7,1.7v0A1.7,1.7,0,0,1,19.39,8H.53a1.7,1.7,0,0,1-1.7-1.7V5.62A1.06,1.06,0,0,1-.11,4.56Z" transform="translate(21.7 6.93) rotate(151.1)"/><circle class="cls-3" cx="43.49" cy="49.29" r="10.42"/><circle class="cls-2" cx="43.49" cy="49.29" r="5.26"/><rect class="cls-1" x="29.63" y="2.94" width="18.97" height="18.97" rx="3.83" ry="3.83" transform="translate(6.91 37.86) rotate(-55.92)"/></g></g></svg>