<svg xmlns="http://www.w3.org/2000/svg" viewBox="0 0 111.11 26.49"><defs><style>.cls-1{fill:#164742;}.cls-2{fill:#4b8d4f;}.cls-3{fill:#e7f5fd;}.cls-4{fill:#59a25d;}</style></defs><title>transit</title><g id="Layer_2" data-name="Layer 2"><g id="Layer_1-2" data-name="Layer 1"><rect class="cls-1" x="13.65" y="20.88" width="3.94" height="5.6" rx="1.97" ry="1.97"/><rect class="cls-1" x="27.12" y="20.88" width="3.94" height="5.6" rx="1.97" ry="1.97"/><path class="cls-2" d="M29.14,23.17H15.57a2.17,2.17,0,0,1-2.11-2.69l1.32-5.4a2.17,2.17,0,0,1,2.11-1.66H27.83a2.18,2.18,0,0,1,2.11,1.66l1.31,5.4A2.17,2.17,0,0,1,29.14,23.17Z"/><path class="cls-3" d="M28.22,22.51H16.48a1.88,1.88,0,0,1-1.82-2.33l1.14-4.67a1.87,1.87,0,0,1,1.82-1.43h9.47a1.88,1.88,0,0,1,1.83,1.43l1.13,4.68A1.88,1.88,0,0,1,28.22,22.51Z"/><rect class="cls-4" x="12.02" y="18.29" width="20.68" height="5.39" rx="2.7" ry="2.7"/><circle class="cls-3" cx="15.62" cy="20.88" r="1.44"/><circle class="cls-3" cx="29.09" cy="20.88" r="1.44"/><rect class="cls-3" x="18.8" y="21.22" width="7.12" height="1.85" rx="0.92" ry="0.92"/><path class="cls-3" d="M50.07,11.3h-1a.94.94,0,0,0-1.75,0h-1a.95.95,0,0,0,0,1.89h1a.95.95,0,0,0,1.69,0h1a.95.95,0,0,0,0-1.89Z"/><rect class="cls-1" x="39.48" y="20.88" width="3.94" height="5.6" rx="1.97" ry="1.97"/><rect class="cls-1" x="52.95" y="20.88" width="3.94" height="5.6" rx="1.97" ry="1.97"/><path class="cls-2" d="M55,23.17H41.4a2.17,2.17,0,0,1-2.11-2.69l1.32-5.4a2.17,2.17,0,0,1,2.11-1.66H53.66a2.18,2.18,0,0,1,2.11,1.66l1.31,5.4A2.17,2.17,0,0,1,55,23.17Z"/><path class="cls-3" d="M54.06,22.51H42.32a1.88,1.88,0,0,1-1.83-2.33l1.14-4.67a1.87,1.87,0,0,1,1.83-1.43h9.46a1.88,1.88,0,0,1,1.83,1.43l1.13,4.68A1.88,1.88,0,0,1,54.06,22.51Z"/><rect class="cls-4" x="37.85" y="18.29" width="20.68" height="5.39" rx="2.7" ry="2.7"/><circle class="cls-3" cx="41.45" cy="20.88" r="1.44"/><circle class="cls-3" cx="54.92" cy="20.88" r="1.44"/><rect class="cls-3" x="44.63" y="21.22" width="7.12" height="1.85" rx="0.92" ry="0.92"/><rect class="cls-1" x="65.94" y="20.88" width="3.94" height="5.6" rx="1.97" ry="1.97"/><rect class="cls-1" x="79.41" y="20.88" width="3.94" height="5.6" rx="1.97" ry="1.97"/><rect class="cls-2" x="63.68" y="1.76" width="21.93" height="21.93" rx="5.46" ry="5.46"/><rect class="cls-3" x="64.33" y="5.14" width="20.63" height="8.26" rx="4.13" ry="4.13"/><path class="cls-3" d="M67.57,15.42H81.71a0,0,0,0,1,0,0v0a1.49,1.49,0,0,1-1.49,1.49H69.06a1.49,1.49,0,0,1-1.49-1.49v0a0,0,0,0,1,0,0Z"/><path class="cls-3" d="M69.21,17.24H80.08a0,0,0,0,1,0,0v0a1.49,1.49,0,0,1-1.49,1.49H70.7a1.49,1.49,0,0,1-1.49-1.49v0a0,0,0,0,1,0,0Z"/><path class="cls-3" d="M70.39,19.05H78.9a0,0,0,0,1,0,0v0a1.49,1.49,0,0,1-1.49,1.49H71.87a1.49,1.49,0,0,1-1.49-1.49v0A0,0,0,0,1,70.39,19.05Z"/><path class="cls-3" d="M70.39,0H78.9a0,0,0,0,1,0,0V0a2.73,2.73,0,0,1-2.73,2.73h-3A2.73,2.73,0,0,1,70.39,0V0a0,0,0,0,1,0,0Z" transform="translate(149.28 2.79) rotate(-180)"/><circle class="cls-3" cx="66.56" cy="19.35" r="1.44"/><circle class="cls-3" cx="82.91" cy="19.35" r="1.44"/><circle class="cls-3" cx="80.61" cy="20.79" r="1"/><circle class="cls-3" cx="68.67" cy="20.79" r="1"/><rect class="cls-1" x="94.59" y="7.43" width="2.26" height="19" transform="translate(1.5 -6.96) rotate(4.2)"/><rect class="cls-1" x="105.17" y="7.43" width="2.26" height="19" transform="translate(213.56 26.04) rotate(175.8)"/><rect class="cls-1" x="99.63" y="18.05" width="2.77" height="5.6" rx="1.38" ry="1.38" transform="translate(80.16 121.86) rotate(-90)"/><path class="cls-2" d="M111.05,15.82,109.38,4.54A5.33,5.33,0,0,0,104.11,0H98a5.32,5.32,0,0,0-5.26,4.51L91,15.79a5.33,5.33,0,0,0,5.26,6.14h.06V19.61l9.42,0v2.35h.07A5.32,5.32,0,0,0,111.05,15.82Z"/><circle class="cls-4" cx="99.59" cy="20.85" r="0.77"/><circle class="cls-4" cx="102.44" cy="20.85" r="0.77"/><path class="cls-3" d="M105.11,14.3H96.92c-2.81,0-5-1.51-4.52-3.19l1.5-5.86c.35-1.35,2.26-2.34,4.52-2.34h5.25c2.27,0,4.19,1,4.52,2.36l1.44,5.86C110,12.8,107.9,14.3,105.11,14.3Z"/><rect class="cls-2" x="92.09" y="7.2" width="17.85" height="4.13" transform="translate(91.75 110.28) rotate(-90)"/><path class="cls-3" d="M97.46,15.16h-6V16a1.29,1.29,0,0,0,1.29,1.29h4.75Z"/><path class="cls-3" d="M104.56,15.16V17.3h4.75A1.28,1.28,0,0,0,110.6,16v-.85Z"/><rect class="cls-3" x="99.91" y="-1.17" width="2.21" height="5.6" rx="1.11" ry="1.11" transform="matrix(0, -1, 1, 0, 99.38, 102.65)"/><rect class="cls-1" y="15.82" width="10.66" height="0.63" rx="0.31" ry="0.31"/><rect class="cls-2" x="1.65" y="15.82" width="7.35" height="0.63" rx="0.23" ry="0.23"/><rect class="cls-1" x="0.8" y="14.56" width="3.99" height="0.54" rx="0.23" ry="0.23" transform="translate(11.3 2.36) rotate(45)"/><rect class="cls-1" x="5.6" y="14.56" width="3.99" height="0.54" rx="0.23" ry="0.23" transform="translate(23.46 19.93) rotate(135)"/><rect class="cls-2" x="3.91" y="18.44" width="2.84" height="5.6" rx="1.42" ry="1.42" transform="translate(-15.91 26.57) rotate(-90)"/><rect class="cls-1" x="3.91" y="20.88" width="2.84" height="5.6" rx="1.42" ry="1.42"/><rect class="cls-3" x="4.59" y="17.48" width="1.49" height="4.22" rx="0.74" ry="0.74" transform="translate(-14.26 24.92) rotate(-90)"/><path class="cls-2" d="M7.22,16.36A1.78,1.78,0,0,0,5.33,14.7a1.78,1.78,0,0,0-1.89,1.66A1.55,1.55,0,0,0,4,17.55v4.68a1.26,1.26,0,0,0,1.33,1.16,1.26,1.26,0,0,0,1.33-1.16V17.55A1.55,1.55,0,0,0,7.22,16.36Z"/><rect class="cls-4" x="3.91" y="19.5" width="2.84" height="5.6" rx="1.42" ry="1.42" transform="translate(-16.98 27.63) rotate(-90)"/><circle class="cls-3" cx="5.33" cy="16.27" r="1.28"/><circle class="cls-3" cx="9.01" cy="13.42" r="0.86"/><circle class="cls-3" cx="1.39" cy="13.42" r="0.86"/></g></g></svg>