<svg xmlns="http://www.w3.org/2000/svg" viewBox="0 0 73.44 69.13"><defs><style>.cls-1{fill:#e7f5fd;}.cls-2{fill:#47b54a;}.cls-3,.cls-4{fill:none;stroke:#e7f5fd;stroke-linecap:round;stroke-miterlimit:10;stroke-width:3px;}.cls-4{stroke-dasharray:4.84 4.84;}</style></defs><title>destination</title><g id="Layer_2" data-name="Layer 2"><g id="Layer_1-2" data-name="Layer 1"><path class="cls-1" d="M71.24,9.13A5.33,5.33,0,1,1,65.91,3.8,5.33,5.33,0,0,1,71.24,9.13Z" transform="translate(-0.25 -0.25)"/><path class="cls-2" d="M71.24,9.13a5.33,5.33,0,1,0-5.33,5.34A5.33,5.33,0,0,0,71.24,9.13ZM73.64,8c.81,6.32-7.76,20.69-7.76,20.69S57.74,14.93,58.15,8.42c0-.14,0-.28,0-.42A7.76,7.76,0,0,1,73.64,8Z" transform="translate(-0.25 -0.25)"/><path class="cls-1" d="M13.37,46.92A5.34,5.34,0,1,1,8,41.59,5.34,5.34,0,0,1,13.37,46.92Z" transform="translate(-0.25 -0.25)"/><path class="cls-2" d="M8,41.59a5.34,5.34,0,1,0,5.33,5.33A5.34,5.34,0,0,0,8,41.59Zm7.73,4.2C16.58,52.11,8,66.48,8,66.48S-.14,52.72.28,46.21c0-.14,0-.28,0-.42a7.76,7.76,0,0,1,15.52,0Z" transform="translate(-0.25 -0.25)"/><path class="cls-3" d="M60.57,30.37a17.8,17.8,0,0,0-2.49,0" transform="translate(-0.25 -0.25)"/><path class="cls-4" d="M53.32,31.22c-5.78,1.59-13.23,6-15.31,18.12C35.53,63.76,23.64,67.05,16.77,67.72" transform="translate(-0.25 -0.25)"/><path class="cls-3" d="M14.35,67.88a23,23,0,0,1-2.5,0" transform="translate(-0.25 -0.25)"/></g></g></svg>