<svg xmlns="http://www.w3.org/2000/svg" viewBox="0 0 55.05 52.57"><defs><style>.cls-1{fill:#164742;}.cls-2{fill:#59a25d;}.cls-3{fill:#e7f5fd;}.cls-4{fill:#4b8d4f;}</style></defs><title>fuel</title><g id="Layer_2" data-name="Layer 2"><g id="Layer_1-2" data-name="Layer 1"><path class="cls-1" d="M20.19,49.07a15.46,15.46,0,0,0,5.88-5.61c2.12-3.73,1.25-6.54-1.09-7.86s-4.61-.69-8.16,2.3C12.13,42,8,42.75,4.59,40.83.05,38.25-1.6,32.46,1.84,26.39a16.16,16.16,0,0,1,5.69-5.94l3,3.4a12.62,12.62,0,0,0-4.91,4.84c-1.72,3-.93,5.72,1.17,6.91,2.33,1.32,4.34.23,7.83-2.65,4.64-3.84,8.51-5,12.71-2.57,5,2.81,6.27,8.64,2.47,15.35a18.58,18.58,0,0,1-6.43,6.84Z"/><rect class="cls-2" x="6.75" y="18.57" width="4.77" height="7.07" rx="0.97" ry="0.97" transform="translate(-9.83 7.53) rotate(-30)"/><rect class="cls-1" x="8.52" y="15.98" width="4.77" height="10.76" rx="0.97" ry="0.97" transform="translate(-9.22 8.31) rotate(-30)"/><path class="cls-3" d="M33.46,11.25l3.16-5.37a9,9,0,0,1,3.27-.65L50.27,6.9c2.36.11,2.48-2.33.14-2.9L34.21.08C33.1-.19,32.05.23,31.86,1L29.74,9.77C29.37,11.3,32.25,12.45,33.46,11.25Z"/><path class="cls-3" d="M17.81,15.18h0L26.43,4.63l3.08,2.52-8,7.29C20.27,15.61,18.72,15.91,17.81,15.18Z"/><path class="cls-4" d="M35.39,5.74l-1.6-2.68a4.92,4.92,0,0,0-6.74-1.68L10.83,11.12a4.92,4.92,0,0,0-1.68,6.74l4.1,6.82a4.92,4.92,0,0,0,7.71.93L34.68,11.72A4.91,4.91,0,0,0,35.39,5.74Zm-6.77,8.43L20,22.92a3.09,3.09,0,0,1-4.85-.58L12.54,18a3.09,3.09,0,0,1,1.06-4.25L23.81,7.66a3.09,3.09,0,0,1,4.25,1.06l1,1.68A3.1,3.1,0,0,1,28.62,14.17Z"/><path class="cls-1" d="M55,15.76c.13-2.06-2.45-6.43-2.45-6.43s-2.72,4.56-2.46,6.56a2.46,2.46,0,1,0,4.92,0S55,15.8,55,15.76Z"/></g></g></svg>