<svg xmlns="http://www.w3.org/2000/svg" viewBox="0 0 145.38 127.8"><defs><style>.cls-1{fill:#f4d450;}.cls-2{fill:#164742;}</style></defs><title>leave-top-left</title><g id="Layer_2" data-name="Layer 2"><g id="Layer_1-2" data-name="Layer 1"><path class="cls-1" d="M42,61.54a63.84,63.84,0,0,0,9.48,8.27l6.05-11.88,3.35,17.39a65.08,65.08,0,0,0,10.88,4l8-15.61,3.43,17.75a92.52,92.52,0,0,0,17.19.21l5.79-11.36,2,10.48A145.33,145.33,0,0,0,144.9,69.93L25.47,22.73l-.34.23C27.19,36.52,39.65,35.23,42,61.54Z"/><path class="cls-1" d="M145.38,69.6a145.21,145.21,0,0,0-17.11-34.3L119.22,41l4.37-12a92.48,92.48,0,0,0-11.87-12.43L96.39,26.13l6-16.46A65.41,65.41,0,0,0,92.07,4.43l-15,9.39L81.63,1.3A63.16,63.16,0,0,0,69.12,0C48.26,16.22,40.72,6.21,29.4,14l.06.4Z"/><path class="cls-2" d="M34.63,125.27A63.57,63.57,0,0,0,47,127.72l-.68-13.32,11.58,13.4a65,65,0,0,0,11.42-2l-.89-17.5L80.22,122a92.85,92.85,0,0,0,15-8.38l-.64-12.73,7,8.08A145.28,145.28,0,0,0,128,81.27L1,99.85l-.17.37C9.33,111,19.49,103.62,34.63,125.27Z"/><path class="cls-2" d="M128.29,80.74A145.62,145.62,0,0,0,96.36,59.53l-5,9.41L89.16,56.38a93.64,93.64,0,0,0-16.49-4.87L64.16,67.46l-3-17.27a65.51,65.51,0,0,0-11.57.61L41.26,66.42,39,53.28a63.68,63.68,0,0,0-11.49,5.11C17.49,82.84,6,77.92,0,90.27l.25.33Z"/></g></g></svg>