<svg xmlns="http://www.w3.org/2000/svg" viewBox="0 0 129.8 107.5"><defs><style>.cls-1{fill:#f4d450;}.cls-2{fill:#164742;}</style></defs><title>leave-right</title><g id="Layer_2" data-name="Layer 2"><g id="Layer_1-2" data-name="Layer 1"><path class="cls-1" d="M103.51,42.23A63,63,0,0,0,93,35.35L88.63,48,82.9,31.19a65.81,65.81,0,0,0-11.32-2.45L65.86,45.31,60,28.2a93.1,93.1,0,0,0-17,2.16L38.8,42.42,35.35,32.31A145.74,145.74,0,0,0,.43,48.14L125.24,78.38l.3-.27C121.63,65,109.47,68,103.51,42.23Z"/><path class="cls-1" d="M0,48.54A145.78,145.78,0,0,0,21.69,80.15l8.18-6.86L27.19,85.75A92.45,92.45,0,0,0,40.67,96.43L54.52,84.82,50.85,102a65.13,65.13,0,0,0,10.95,3.76L75.38,94.34l-2.8,13a63.1,63.1,0,0,0,12.57-.44c18.41-19,27.26-10.08,37.41-19.3l-.11-.4Z"/><path class="cls-2" d="M117.73,27.1a63.8,63.8,0,0,0-8.4-9.36l-7.44,11.07-1.23-17.67A66.13,66.13,0,0,0,90.34,5.86L80.56,20.4l-1.25-18a92.65,92.65,0,0,0-17-2.29L55.15,10.65,54.41,0A145.42,145.42,0,0,0,16.6,6.32l112.84,61.3.36-.19C129.4,53.72,116.87,53.51,117.73,27.1Z"/><path class="cls-2" d="M16.08,6.59A145.54,145.54,0,0,0,28.92,42.71l9.66-4.52L32.79,49.55A92.73,92.73,0,0,0,43.07,63.33l16.38-7.66-8,15.61a65.63,65.63,0,0,0,9.62,6.45l16-7.5L71.1,82.11a63.93,63.93,0,0,0,12.26,2.8c22.67-13.58,28.94-2.73,41.12-9v-.41Z"/></g></g></svg>